<!--?xml version="1.0" encoding="utf-8"?-->
<!-- Generator: Adobe Illustrator 18.1.1, SVG Export Plug-In . SVG Version: 6.00 Build 0)  -->

<svg version="1.1" id="_x32_" xmlns="http://www.w3.org/2000/svg" xmlns:xlink="http://www.w3.org/1999/xlink" x="0px" y="0px" viewBox="0 0 512 512" style="width: 256px; height: 256px; opacity: 1;" xml:space="preserve">
<style type="text/css">
	.st0{fill:#4B4B4B;}
</style>
<g>
	<path class="st0" d="M497.938,114.062c-8.644-8.664-20.74-14.07-33.955-14.063H211.451c-5.088,0-9.976-1.934-13.686-5.411
		l-44.381-41.605c-8.896-8.333-20.64-12.984-32.835-12.984H48.017c-13.214-0.006-25.31,5.399-33.954,14.063
		C5.399,62.706-0.006,74.801,0,88.016v335.968c-0.006,13.214,5.399,25.31,14.063,33.954c8.644,8.665,20.74,14.069,33.954,14.063
		h415.966c13.215,0.006,25.311-5.398,33.955-14.063c8.664-8.644,14.069-20.74,14.062-33.954V148.016
		C512.007,134.801,506.602,122.706,497.938,114.062z M310.142,127.998h58.337v15.268c0,2.08-0.622,3.868-1.583,5.001
		c-0.987,1.12-2.226,1.848-4.518,1.875l-0.549-0.007c-2.405-0.192-3.339-0.908-4.213-1.808c-0.854-0.961-1.351-2.146-2.066-3.484
		c-0.378-0.629-1.179-2.749-2.961-4.723c-1.769-2.027-4.796-3.835-8.804-4.027l-0.947-0.027c-4.028-0.04-7.525,1.643-9.697,4.286
		c-2.193,2.623-3.154,5.975-3.154,9.333v7.26h-19.845V127.998z M310.142,163.682h19.845v7.253c0,3.358,0.96,6.71,3.16,9.334
		c2.18,2.649,5.696,4.326,9.704,4.292l0.921-0.026c4.02-0.192,7.068-2.007,8.83-4.034c1.769-1.974,2.577-4.107,2.948-4.716
		c0.716-1.338,1.212-2.537,2.066-3.491c0.888-0.908,1.808-1.622,4.213-1.808l0.536-0.013c2.305,0.033,3.544,0.762,4.53,1.874
		c0.961,1.132,1.583,2.914,1.583,4.995v21.262c0,2.074-0.622,3.849-1.583,4.982c-0.987,1.133-2.212,1.848-4.504,1.881l-0.563-0.013
		c-2.405-0.186-3.339-0.908-4.213-1.808c-0.854-0.948-1.351-2.133-2.066-3.478c-0.371-0.623-1.179-2.749-2.961-4.73
		c-1.769-2.02-4.796-3.835-8.804-4.027l-0.947-0.02c-4.028-0.039-7.525,1.643-9.697,4.286c-2.193,2.623-3.154,5.975-3.154,9.334
		v7.253h-19.845V163.682z M310.142,219.005h19.845v7.254c0,3.358,0.96,6.697,3.154,9.333c2.172,2.65,5.67,4.332,9.697,4.299
		l0.934-0.033c4.02-0.185,7.048-2,8.817-4.027c1.782-1.974,2.59-4.1,2.961-4.73c0.716-1.332,1.212-2.537,2.066-3.484
		c0.874-0.902,1.808-1.616,4.213-1.802h0.02l0.53-0.02c2.292,0.04,3.531,0.755,4.518,1.888c0.961,1.133,1.583,2.915,1.583,4.982
		v21.263c0,2.073-0.622,3.848-1.583,4.987c-0.987,1.12-2.226,1.848-4.53,1.882l-0.557-0.014c-2.384-0.185-3.305-0.9-4.193-1.808
		c-0.854-0.961-1.351-2.153-2.066-3.491c-0.371-0.616-1.179-2.742-2.948-4.717c-1.762-2.027-4.809-3.842-8.83-4.034l-0.921-0.02
		c-4.02-0.04-7.524,1.65-9.704,4.292c-2.2,2.63-3.16,5.968-3.16,9.327v7.253h-19.845V219.005z M310.142,274.335h19.845v7.26
		c0,3.358,0.96,6.697,3.154,9.327c2.172,2.636,5.67,4.319,9.677,4.279l0.967-0.027c4.007-0.192,7.034-2,8.804-4.014
		c1.782-1.98,2.583-4.106,2.961-4.723c0.716-1.344,1.212-2.537,2.066-3.491c0.874-0.901,1.808-1.623,4.213-1.801l0.549-0.027
		c2.306,0.046,3.531,0.755,4.518,1.888c0.961,1.133,1.583,2.914,1.583,5.001v21.243c0,2.08-0.622,3.862-1.583,5.001
		c-0.987,1.12-2.226,1.842-4.53,1.875l-0.557-0.014c-2.384-0.185-3.305-0.908-4.193-1.808c-0.854-0.954-1.351-2.152-2.066-3.484
		c-0.378-0.616-1.179-2.742-2.961-4.723c-1.769-2.021-4.796-3.836-8.817-4.021h0.027l-0.981-0.026
		c-4.008-0.04-7.505,1.643-9.677,4.286c-2.193,2.63-3.154,5.962-3.154,9.32v7.266h-19.845V274.335z M310.142,329.665h19.845v7.246
		c0,3.365,0.96,6.704,3.16,9.334c2.18,2.636,5.663,4.325,9.691,4.279l0.934-0.02c4.02-0.192,7.048-2,8.817-4.02
		c1.782-1.98,2.583-4.1,2.961-4.73c0.716-1.338,1.212-2.537,2.066-3.484c0.888-0.901,1.808-1.616,4.213-1.802l0.536-0.013
		c2.305,0.032,3.544,0.755,4.53,1.874c0.961,1.133,1.583,2.922,1.583,4.995v21.25c0,2.086-0.622,3.862-1.583,4.994
		c-0.987,1.119-2.212,1.848-4.518,1.881l-0.57-0.013c-2.384-0.186-3.318-0.901-4.193-1.815c-0.854-0.947-1.351-2.14-2.066-3.478
		c-0.378-0.63-1.179-2.755-2.961-4.73c-1.769-2.02-4.796-3.828-8.817-4.013l-0.954-0.033c-4.008-0.034-7.505,1.649-9.677,4.292
		c-2.193,2.623-3.154,5.962-3.154,9.32v7.26h-19.845V329.665z M296.648,444.001H48.017c-5.571-0.006-10.486-2.219-14.155-5.862
		c-3.643-3.67-5.856-8.585-5.862-14.155V88.016c0.006-5.571,2.219-10.486,5.862-14.148c3.67-3.65,8.584-5.856,14.155-5.869h72.533
		c5.087,0,9.976,1.934,13.691,5.419l44.374,41.598c8.896,8.34,20.64,12.983,32.836,12.983h85.197V444.001z M329.986,426.315v17.686
		h-19.845v-59.013h19.845v7.254c0,3.358,0.96,6.704,3.16,9.326c2.18,2.643,5.684,4.326,9.704,4.292l0.908-0.027
		c4.034-0.186,7.081-2,8.843-4.028c1.769-1.974,2.577-4.1,2.948-4.716c0.716-1.338,1.212-2.537,2.066-3.491
		c0.888-0.9,1.808-1.623,4.213-1.808l0.536-0.014c2.305,0.033,3.544,0.762,4.53,1.882c0.961,1.132,1.583,2.914,1.583,4.987v21.263
		c0,2.067-0.622,3.855-1.583,4.988c-0.987,1.12-2.226,1.842-4.518,1.875l-0.549-0.014c-2.405-0.185-3.339-0.901-4.213-1.808
		c-0.854-0.947-1.351-2.146-2.066-3.484c-0.371-0.63-1.179-2.742-2.948-4.73c-1.762-2.021-4.809-3.829-8.816-4.021l-0.934-0.026
		c-4.02-0.046-7.524,1.643-9.704,4.286C330.947,419.605,329.986,422.957,329.986,426.315z M395.068,444.001H336.73v-17.686
		c-0.014-2.086,0.623-3.862,1.583-5.001c0.994-1.126,2.226-1.848,4.537-1.881l0.536,0.013c2.385,0.186,3.319,0.9,4.193,1.815
		c0.868,0.947,1.351,2.146,2.067,3.484c0.384,0.616,1.192,2.742,2.968,4.723c1.768,2.02,4.809,3.835,8.81,4.027l0.954,0.026
		c4.008,0.04,7.512-1.65,9.685-4.292c2.186-2.63,3.153-5.968,3.166-9.32v-6.929h19.839V444.001z M395.068,406.238h-19.839v-7.591
		c-0.014-3.358-0.981-6.704-3.166-9.333c-2.193-2.642-5.677-4.319-9.698-4.279l-0.927,0.027c-4.014,0.178-7.055,1.993-8.823,4.02
		c-1.775,1.981-2.584,4.107-2.968,4.723c-0.716,1.345-1.199,2.537-2.067,3.491c-0.874,0.9-1.808,1.622-4.193,1.801l-0.536,0.014
		c-2.312-0.033-3.544-0.756-4.537-1.875c-0.96-1.14-1.597-2.921-1.583-4.994v-21.263c-0.014-2.074,0.609-3.856,1.57-4.988
		c0.987-1.12,2.22-1.836,4.518-1.875l0.557,0.02c2.398,0.179,3.332,0.901,4.206,1.796c0.868,0.947,1.351,2.146,2.067,3.49
		c0.384,0.616,1.192,2.742,2.968,4.716c1.768,2.028,4.809,3.842,8.81,4.028l0.954,0.026c4.008,0.033,7.512-1.643,9.685-4.292
		c2.199-2.624,3.153-5.968,3.166-9.326v-7.254h19.839V406.238z M395.068,350.577h-19.839v-7.253
		c-0.014-3.359-0.981-6.697-3.166-9.334c-2.172-2.636-5.677-4.325-9.698-4.286l-0.941,0.033c-4,0.179-7.041,1.994-8.81,4.014
		c-1.769,1.981-2.584,4.107-2.968,4.723c-0.716,1.345-1.199,2.531-2.067,3.484c-0.874,0.908-1.808,1.622-4.193,1.808l-0.55,0.013
		c-2.311-0.032-3.551-0.755-4.524-1.881c-0.974-1.133-1.597-2.908-1.583-4.988v-21.256c-0.014-2.074,0.609-3.849,1.57-4.982
		c0.987-1.12,2.226-1.841,4.518-1.882l0.557,0.02h0.013c2.385,0.185,3.319,0.901,4.193,1.802c0.868,0.947,1.351,2.146,2.067,3.478
		c0.384,0.623,1.198,2.749,2.968,4.73c1.768,2.02,4.789,3.835,8.81,4.027l0.941,0.026c4.021,0.033,7.525-1.65,9.698-4.292
		c2.186-2.63,3.153-5.975,3.166-9.334v-7.246h19.839V350.577z M395.068,295.253h-19.839v-7.246c-0.014-3.372-0.967-6.71-3.166-9.34
		c-2.172-2.65-5.677-4.326-9.685-4.292l-0.96,0.027c-3.994,0.192-7.034,2.007-8.803,4.028c-1.775,1.98-2.584,4.106-2.968,4.736
		c-0.716,1.325-1.199,2.531-2.067,3.471c-0.874,0.9-1.808,1.616-4.193,1.802l-0.57,0.013c-2.298-0.033-3.531-0.748-4.518-1.868
		c-0.96-1.133-1.583-2.914-1.57-4.988v-21.263c-0.014-2.08,0.623-3.856,1.583-4.994c0.994-1.12,2.226-1.842,4.537-1.875l0.524,0.014
		c2.398,0.178,3.332,0.901,4.206,1.802c0.868,0.947,1.351,2.146,2.08,3.49c0.371,0.61,1.18,2.742,2.955,4.723
		c1.768,2.014,4.809,3.836,8.823,4.021l0.927,0.026c4.021,0.033,7.525-1.65,9.698-4.286c2.186-2.63,3.153-5.968,3.166-9.326v-7.247
		h19.839V295.253z M395.068,239.937h-19.839v-7.273c-0.014-3.358-0.981-6.697-3.166-9.32c-2.172-2.643-5.677-4.332-9.685-4.299
		l-0.96,0.033h0.007c-4,0.192-7.041,2.007-8.81,4.027c-1.775,1.981-2.584,4.1-2.968,4.73c-0.716,1.338-1.199,2.537-2.067,3.484
		c-0.874,0.907-1.808,1.622-4.193,1.808l-0.55,0.013c-2.311-0.033-3.551-0.755-4.524-1.881c-0.96-1.14-1.597-2.915-1.583-5.001
		v-21.25c-0.014-2.08,0.623-3.862,1.583-4.995c0.973-1.119,2.213-1.848,4.524-1.888l0.537,0.02c2.398,0.186,3.332,0.901,4.206,1.808
		c0.868,0.948,1.351,2.146,2.067,3.478c0.384,0.63,1.192,2.763,2.968,4.737c1.768,2.026,4.809,3.835,8.823,4.02l0.954,0.02
		c4.008,0.039,7.499-1.643,9.671-4.286c2.199-2.623,3.153-5.962,3.166-9.32v-7.26h19.839V239.937z M395.068,129.264v6.75v7.002
		v41.579h-19.839v-7.253c-0.014-3.365-0.981-6.704-3.166-9.333c-2.172-2.637-5.677-4.326-9.698-4.286l-0.941,0.026
		c-4,0.186-7.041,2.001-8.81,4.028c-1.775,1.974-2.584,4.107-2.968,4.723c-0.716,1.344-1.199,2.537-2.067,3.484
		c-0.874,0.914-1.808,1.629-4.193,1.821l-0.536,0.007c-2.312-0.026-3.544-0.762-4.537-1.882c-0.96-1.132-1.597-2.921-1.583-4.994
		v-21.25c-0.014-2.086,0.623-3.861,1.583-4.994c0.973-1.126,2.213-1.848,4.524-1.888l0.537,0.02
		c2.398,0.185,3.332,0.908,4.206,1.808c0.868,0.947,1.351,2.146,2.067,3.484c0.384,0.623,1.192,2.749,2.968,4.722
		c1.768,2.028,4.809,3.836,8.81,4.028l0.954,0.027c4.008,0.04,7.512-1.643,9.685-4.292c2.199-2.623,3.153-5.975,3.166-9.333v-0.252
		v-7.002v-6.75v-1.266h19.839V129.264z M484.001,423.984c-0.007,5.57-2.22,10.486-5.862,14.155
		c-3.67,3.643-8.585,5.856-14.156,5.862h-55.416V127.998h55.416c5.571,0.014,10.486,2.219,14.156,5.869
		c3.643,3.663,5.856,8.578,5.862,14.148V423.984z" style="fill: rgb(227, 227, 227);"></path>
</g>
</svg>
